<?xml version="1.0" encoding="UTF-8"?>
<svg width="148px" height="23px" viewBox="0 0 148 23" version="1.1" xmlns="http://www.w3.org/2000/svg" xmlns:xlink="http://www.w3.org/1999/xlink">
    <!-- Generator: Sketch 53.2 (72643) - https://sketchapp.com -->
    <title>Basics / Logos / Checkers@1,5x</title>
    <desc>Created with Sketch.</desc>
    <g id="Symbols" stroke="none" stroke-width="1" fill="none" fill-rule="evenodd">
        <g id="Components-/-Navigation-/-Desktop-/-1440-/-White" transform="translate(-48.000000, -13.000000)" fill="#38A8AE">
            <g id="Basics-/-Logos-/-Checkers" transform="translate(48.000000, 13.000000)">
                <path d="M7.83676554,11.2090923 C7.82355008,13.9552539 8.92043295,16.635402 12.1978661,16.635402 C14.5766482,16.6618074 15.4620838,15.3019293 15.8981938,13.4139432 L15.8981938,13.2687135 L23.5631584,13.2687135 L23.5631584,13.466754 C23.5367275,17.6784153 19.4927979,22.0749144 12.3300206,22.0749144 C4.42717783,22.0221036 1.63424829e-13,17.2295235 1.63424829e-13,11.1034707 C0.0264309124,4.58133689 4.91614971,0.2244459 12.4489598,0.3036621 C19.1491961,0.3432702 22.8627393,3.4194993 23.4838657,8.63456579 L23.4838657,8.84580899 L15.845332,8.84580899 L15.845332,8.68737659 C15.5679612,6.93119866 13.9852671,5.68351459 12.2110815,5.82239069 C8.97329477,5.80918799 7.83676554,8.46293069 7.83676554,11.2090923 Z M35.8799636,21.652428 L35.8799636,12.3841326 C35.8667482,10.3509168 35.62887,9.20228189 33.9240761,9.20228189 C32.906486,9.21548459 31.5188631,9.69078179 31.5188631,12.3313218 L31.5188631,21.6920361 L24.4750249,21.6920361 L24.4750249,0.0792161999 L31.5188631,0.0792161999 L31.4527858,5.51872859 C32.8199845,4.0825691 34.760735,3.33610142 36.7389683,3.4855128 C38.3910463,3.37008872 40.0134872,3.96715108 41.1958497,5.12565646 C42.3782121,6.28416184 43.0072394,7.89313878 42.9238018,9.54555209 L42.9238018,21.652428 L35.8799636,21.652428 Z M50.0733636,14.6285916 L50.0337172,14.6285916 C50.0469295,15.44247 50.3909398,16.2159708 50.986666,16.7712792 C51.5823922,17.3265876 52.3785843,17.6159308 53.1922113,17.5727937 C54.1838952,17.6297669 55.1426085,17.2073579 55.7692252,16.4373615 L55.8353025,16.3317399 L62.4430306,16.3317399 L62.337307,16.635402 C60.976115,20.4905904 57.2229254,22.2861576 53.2582886,22.2861576 C47.6285042,22.2861576 43.2938346,18.9722799 43.2938346,13.0442676 C43.2133614,10.5435005 44.1659853,8.11974717 45.9281476,6.34180595 C47.69031,4.56386473 50.106875,3.58826065 52.6107312,3.6439452 C59.614923,3.6175398 62.7073397,7.56514709 62.7073397,14.4041457 L62.7073397,14.6285916 L50.0733636,14.6285916 Z M50.0733636,10.7469978 L55.8353025,10.7205924 C55.7313799,9.34011993 54.5779144,8.27419427 53.1922113,8.27809289 C51.6551234,8.12225054 50.2728966,9.21643235 50.0733636,10.7469978 Z M69.8965479,12.8462271 L69.8172552,12.806619 C69.8172552,14.9850645 70.2005034,16.899456 72.5528546,16.8862533 C73.8221305,16.8383669 74.8380344,15.817677 74.8787749,14.5493754 L74.8787749,14.3381322 L81.631873,14.3381322 L81.631873,14.5889835 C80.9975311,19.4343744 77.2046952,22.1673333 72.447131,22.1673333 C69.0335217,22.3094521 65.8151642,20.5761971 64.0576536,17.649158 C62.300143,14.7221189 62.2845959,11.06948 64.017126,8.12761453 C65.7496561,5.18574908 68.9531426,3.42521279 72.3678382,3.5383236 C76.966817,3.5119182 80.9843157,5.78278259 81.4204257,10.7073897 L81.4204257,10.9450383 L74.7201894,10.9450383 L74.7201894,10.7469978 C74.7185527,10.1859385 74.4818906,9.6511835 74.0675895,9.27240122 C73.6532884,8.89361893 73.099185,8.70540217 72.5396392,8.75339009 C70.2533652,8.76659279 69.8965479,10.7205924 69.8965479,12.8462271 Z M94.4112192,10.6413762 L101.67972,21.6260226 L93.2086127,21.6260226 L89.7461632,15.5131725 L88.8475121,16.503375 L88.8475121,21.6128199 L81.8168894,21.6128199 L81.8168894,-2.13162821e-14 L88.8475121,-2.13162821e-14 L88.8475121,8.46293069 L92.7064254,3.828783 L100.781069,3.828783 L94.4112192,10.6413762 Z M104.983584,14.4041457 L104.824999,14.4041457 C104.853021,15.242297 105.22975,16.0307761 105.864428,16.5796314 C106.499106,17.1284867 107.334193,17.3879582 108.168509,17.295537 C109.160193,17.3525102 110.118906,16.9301012 110.745523,16.1601048 L110.8116,16.0544832 L117.419328,16.0544832 L117.313605,16.3581453 C115.965628,20.2133337 112.199223,22.0089009 108.234586,22.0089009 C102.604802,22.0089009 98.2833479,18.6950232 98.2833479,12.7670109 C98.199754,10.2768398 99.1422135,7.86140749 100.890672,6.084692 C102.639131,4.30797652 105.04053,3.32551014 107.534167,3.3666885 C114.551574,3.3402831 117.630776,7.28789039 117.630776,14.126889 L117.630776,14.4041457 L104.983584,14.4041457 Z M104.983584,10.5225519 L110.745523,10.4961465 C110.6416,9.11567403 109.488135,8.04974837 108.102432,8.05364699 C106.567441,7.90493902 105.18959,8.99565669 104.983584,10.5225519 Z M141.008918,9.12306569 L141.048564,8.91182249 C141.016059,8.44481549 140.760215,8.02209726 140.36136,7.77639029 C139.983412,7.4834662 139.518157,7.32543204 139.039815,7.32749849 C138.088302,7.32749849 137.268944,7.55194439 137.268944,8.44972799 C137.268944,8.79299819 137.533253,8.97783599 137.916501,9.14947109 C138.245401,9.27614926 138.586356,9.36904709 138.934091,9.42672779 C139.34377,9.51914669 139.832742,9.59836289 140.348145,9.69078179 C141.479422,9.86040131 142.596867,10.1119148 143.691655,10.4433357 C145.925068,11.1562815 147.999894,12.5029569 147.999894,15.4867671 C148.026325,20.5301985 143.09696,21.8372658 139.013384,21.8504685 C134.929808,21.8636712 130.251536,20.2397391 130.132597,15.5527806 L130.132597,15.3283347 L136.87248,15.3283347 L136.87248,15.5395779 C136.919289,16.0618517 137.182895,16.5406725 137.59933,16.8598479 C138.073158,17.1922246 138.647399,17.3508048 139.224831,17.3087397 C140.136698,17.295537 141.246796,16.9654695 141.233581,16.1865102 C141.220365,15.4075509 140.91641,15.1170915 137.771131,14.5757808 C133.066429,13.7836188 130.833017,12.3181191 130.542277,9.58516019 C129.897366,9.40609493 129.228965,9.32596425 128.559958,9.34751159 C126.128314,9.36071429 124.806769,10.7469978 124.806769,14.3777403 L124.806769,21.4411848 L117.776146,21.4411848 L117.696853,3.6835533 L124.463167,3.6835533 L124.463167,5.94121499 C125.394192,4.2319449 127.222347,3.20588297 129.167869,3.300675 C129.837805,3.29477191 130.505203,3.3836724 131.150187,3.564729 L131.321988,3.564729 L131.321988,6.03363389 C132.881412,3.828783 136.251354,3.1950534 138.801937,3.1950534 C142.51548,3.168648 147.259829,4.1852559 147.444845,8.84580899 L147.444845,9.12306569 L141.008918,9.12306569 Z" id="Combined-Shape"></path>
            </g>
        </g>
    </g>
</svg>