<svg xmlns="http://www.w3.org/2000/svg" width="360" height="42" viewBox="0 0 360 42">
  <g fill="none" fill-rule="evenodd">
    <path fill="#005093" d="M66.8358 36.0497L52.4948 36.0497 52.4948 5.1027 67.7508 5.1027C60.2208 8.1377 55.9548 13.9097 55.9548 20.5767 55.9548 27.2427 59.3068 33.0147 66.8358 36.0497M35.978 36.0497L50.319 36.0497 50.319 5.1027 35.483 5.1027C43.013 8.1377 46.859 13.9097 46.859 20.5767 46.859 27.2427 43.506 33.0147 35.978 36.0497"/>
    <path fill="#005093" d="M89.8464 6.689C89.8424 6.444 90.9394 14.091 90.9864 14.113 76.0144 4.031 68.4574 14.265 67.9844 20.3 67.4124 27.61 78.7434 38.249 91.3924 26.861 90.9194 28.173 89.4034 35.233 89.0904 35.503 65.5524 40.134 59.3814 26.333 59.3254 20.773 59.2514 13.603 68.4794 1.286 89.8464 6.689M134.082 26.8439C134.06 26.9659 131.384 35.4149 131.448 35.4259 130.124 35.4149 107.477 35.4259 107.477 35.4259 109.223 33.1229 109.223 30.2699 109.223 30.2699L109.223 11.5409C109.223 11.5409 109.223 8.6869 107.477 6.3839L117.591 6.3839C115.846 8.6869 115.846 11.5409 115.846 11.5409 115.846 11.5409 115.775 30.5599 115.849 30.8489 129.232 31.5319 133.168 28.1199 134.082 26.8439M158.1702 30.2698C158.1702 30.2698 158.1702 33.1228 159.9162 35.4268L150.2212 35.4268C151.9672 33.1228 151.9672 30.2698 151.9672 30.2698L151.9672 11.5408C151.9672 11.5408 151.9672 8.6878 150.2212 6.3838L159.9162 6.3838C158.1702 8.6878 158.1702 11.5408 158.1702 11.5408L158.1702 30.2698zM208.2474 6.689C208.2434 6.444 209.3404 14.091 209.3874 14.113 194.4154 4.031 186.8584 14.265 186.3854 20.3 185.8134 27.61 197.1444 38.249 209.7934 26.861 209.3204 28.173 207.8044 35.233 207.4924 35.503 183.9534 40.134 177.7824 26.333 177.7264 20.773 177.6524 13.603 186.8804 1.286 208.2474 6.689M235.8703 21.2582L235.8703 30.3672C235.8703 30.3672 235.8703 33.2322 237.7593 35.5442L227.2713 35.5442C229.1603 33.2322 229.1603 30.3672 229.1603 30.3672L229.1603 11.5622C229.1603 11.5622 229.1603 8.6972 227.2713 6.3842L237.7593 6.3842C235.8703 8.6972 235.8703 11.5622 235.8703 11.5622L235.8703 19.2012C238.1653 17.8792 243.7843 13.1042 246.2383 10.4602 248.0023 8.5592 246.1593 6.4202 246.1593 6.4202L260.1713 6.4202C256.0563 7.5952 243.9463 19.7152 243.9463 19.8622 244.1053 19.9362 256.9263 34.9952 261.4373 35.7862L245.8423 35.7862C251.3833 33.3052 235.9493 21.2582 235.8703 21.2582M302.5473 8.9384C302.4743 8.9384 303.9393 16.6694 303.9183 16.6494 297.1273 7.5804 282.9733 9.2984 283.1433 12.6164 283.3633 16.9084 289.8423 15.9504 299.1783 20.3214 309.6513 25.2264 304.5243 44.1374 275.4483 33.1744 275.1553 32.4524 273.0343 25.2334 273.0343 25.2334 274.4513 28.0674 293.1883 36.4124 296.0243 29.5674 298.5703 23.4194 272.7883 24.1194 273.6903 13.3384 274.3383 5.5974 290.8293 2.5184 302.5473 8.9384M43.4538 17.2278C43.1158 14.3698 41.1988 11.0658 41.1988 11.0658 41.1988 11.0658 41.0238 13.3328 40.5468 13.0848 40.1178 12.8608 40.6288 11.6158 39.4048 10.0248 38.7888 9.2258 38.3788 9.0448 38.3788 9.0448 38.3788 9.0448 38.3228 9.6988 37.9568 9.9638 37.9568 9.9638 36.0588 7.6178 34.3048 7.1288 33.8148 6.9918 33.0138 6.9388 33.0138 6.9388 33.0138 6.9388 33.0958 7.6248 32.8768 7.9638 32.2048 9.0048 31.4018 6.6848 28.9598 5.2108 27.8808 4.5588 27.2038 4.7478 27.2038 4.7478 27.2038 4.7478 27.4708 5.2918 26.7378 5.9048 25.8268 6.6668 24.6768 7.6378 23.7808 7.0268 23.5398 6.8628 23.6088 6.2988 23.6088 6.2988 23.6088 6.2988 23.3918 6.0478 22.7398 7.0268 22.2968 7.6918 21.8988 8.0918 21.4138 8.4348 20.0778 9.3788 18.9048 9.1268 17.5508 10.0708 17.0668 10.4078 16.5538 11.2068 16.5538 11.2068 16.5538 11.2068 16.0448 10.2678 15.4838 9.9548 15.2048 9.7988 14.7088 9.6848 14.7088 9.6848 14.7088 9.6848 15.1768 11.6858 15.0918 12.9828 15.0638 13.4078 14.8248 14.4008 14.3768 14.4718 13.0918 14.6748.4658 16.0418.4658 16.0418L.5068 16.2048 14.7248 17.2208C14.7248 17.2208 14.9028 17.9878 15.0488 18.4698 15.1898 18.9318 15.3768 19.5718 15.4538 19.6408 16.0098 20.1478 16.7078 20.4578 16.7078 20.4578L16.6198 26.9608C16.6198 26.9608 16.7228 27.6628 16.8458 28.0978 16.9568 28.4938 17.2028 29.0898 17.2028 29.0898L19.0408 29.1778C19.0408 29.1778 19.4748 27.9578 19.8438 27.2198 20.1288 26.6488 20.3818 26.3488 20.3818 26.3488L20.0908 28.8278 21.2278 28.4778 21.8398 27.7108C21.8398 27.7108 21.9048 26.8948 22.0048 26.3828 22.1868 25.4508 22.7738 24.0738 22.7738 24.0738 22.7738 24.0738 24.4728 23.2828 25.1648 22.0738 26.1568 20.3398 25.7188 18.7078 25.7188 18.7078 25.7188 18.7078 26.7768 19.6048 27.1458 20.5698 27.8398 22.3868 27.6228 23.3418 27.6228 23.3418L24.8398 29.9328C24.8398 29.9328 24.0398 32.0058 23.9228 33.3988 23.8348 34.4568 24.0568 36.1188 24.0568 36.1188 24.0568 36.1188 30.6748 36.0098 34.1998 33.8768 37.8758 31.6538 39.9918 29.8438 41.8328 25.9748 43.3228 22.8418 43.8618 20.6728 43.4538 17.2278L43.4538 17.2278zM20.2358 18.8538C20.2358 18.8538 20.0368 19.0998 19.8908 19.2398 19.7208 19.4008 19.4198 19.6118 19.4198 19.6118 19.4198 19.6118 19.3138 19.3348 19.2648 19.1528 19.2068 18.9378 19.1568 18.5908 19.1568 18.5908 19.1568 18.5908 19.3828 18.4308 19.5368 18.3428 19.7018 18.2468 19.9738 18.1248 19.9738 18.1248L20.2358 18.8538z"/>
    <path fill="#84BF41" d="M339.084,41.0808 C350.378,41.0808 359.534,31.9248 359.534,20.6308 C359.534,9.3368 350.378,0.1808 339.084,0.1808 C327.79,0.1808 318.634,9.3368 318.634,20.6308 C318.634,31.9248 327.79,41.0808 339.084,41.0808"/>
    <polygon fill="#FFFFFE" points="323.548 25.5 354.619 25.5 354.619 15.762 323.548 15.762"/>
    <polygon fill="#FFFFFE" points="334.215 35.148 343.953 35.148 343.953 6.113 334.215 6.113"/>
  </g>
</svg>
