<svg id="Layer_1" data-name="Layer 1" xmlns="http://www.w3.org/2000/svg" viewBox="0 0 329.52 114.46"><title>Artboard 1</title><polygon points="329.52 114.66 329.52 -0.04 186.16 -0.04 236.58 114.66 329.52 114.66" style="fill:#0070ce"/><path d="M61.75,75.2C55.09,81.56,48.53,85.8,38.1,85.8,22,85.8,9.85,72.78,9.85,55.53S22,25.46,38.1,25.46c8.7,0,15.58,3,23,10.06l.49.47,6.67-7.17-.48-.45c-6.62-6.25-14.79-12-29.59-12C16.29,16.34-.23,33.28-.23,55.74S16.15,94.92,37.89,94.92c15.16,0,23.84-6.74,30.34-13.32l.47-.48-6.48-6.36Z" style="fill:#003057"/><path d="M96.26,36C80.8,36,69.13,48.64,69.13,65.45s12.13,29.47,28.2,29.47c9.51,0,16.67-3.26,23.22-10.57l.44-.5-6.09-5.46-.45.47c-4.94,5.17-10.31,7.58-16.91,7.58-9.92,0-17.35-6.94-18.67-17.34h43.59l.07-.59a23,23,0,0,0,.11-2.63C122.64,48,112,36,96.26,36M78.87,61.69c1.3-10.31,8.28-17.45,17.18-17.45,11,0,15.92,8.88,16.87,17.45Z" style="fill:#003057"/><path d="M158.83,46.38V36.21l-.64,0c-9.11-.38-17.11,4.55-21.88,13.18V37.15h-9.55V93.64h9.55V71c0-15,8.33-24.62,21.21-24.62Z" style="fill:#003057"/><polygon points="267.98 17.62 241.75 80.88 215.63 17.62 204.78 17.62 237.47 94.17 245.82 94.17 278.51 17.62 267.98 17.62" style="fill:#fff"/><path d="M179.84,36.4H162.68V45h16.67c9.93.12,15.4,5.22,15.4,14.37v1a58.44,58.44,0,0,0-16.3-2.14c-15.18,0-24.25,6.95-24.25,18.59,0,12.34,11,18,21.26,18,9.6,0,15.67-4.23,19.29-8.3v7.13H204V59.26c0-14.74-8.57-22.86-24.13-22.86M177.06,87c-6.35,0-13.2-3.26-13.2-10.43,0-6.79,5.77-10.85,15.44-10.85a56.67,56.67,0,0,1,15.55,2.18V72.7c0,8.14-7.64,14.27-17.79,14.27" style="fill:#003057"/><path d="M12.69,113.82a3.22,3.22,0,0,1-2.31.84H7.25v-8.92h3.13a3.18,3.18,0,0,1,2.31.84c1,1,.9,2.26.9,3.55s.06,2.72-.9,3.69m-.93-6.27a2,2,0,0,0-1.52-.6H8.6v6.49h1.64a1.92,1.92,0,0,0,1.52-.6c.46-.51.48-1.48.48-2.71s0-2.06-.48-2.58" style="fill:#003057"/><polygon points="15.59 114.66 15.59 105.73 21.29 105.73 21.29 106.95 16.94 106.95 16.94 109.56 20.65 109.56 20.65 110.76 16.94 110.76 16.94 113.44 21.29 113.44 21.29 114.66 15.59 114.66" style="fill:#003057"/><polygon points="26.02 114.66 24.97 114.66 22.04 105.73 23.45 105.73 25.5 112.22 27.55 105.73 28.98 105.73 26.02 114.66" style="fill:#003057"/><polygon points="30.21 114.66 30.21 105.73 35.91 105.73 35.91 106.95 31.56 106.95 31.56 109.56 35.27 109.56 35.27 110.76 31.56 110.76 31.56 113.44 35.91 113.44 35.91 114.66 30.21 114.66" style="fill:#003057"/><polygon points="37.76 114.66 37.76 105.73 39.11 105.73 39.11 113.44 43.41 113.44 43.41 114.66 37.76 114.66" style="fill:#003057"/><path d="M49.86,113.78a3.22,3.22,0,0,1-2.35,1,3.18,3.18,0,0,1-2.34-1c-.88-.88-.87-1.87-.87-3.58s0-2.71.87-3.59a3.18,3.18,0,0,1,2.34-1,3.22,3.22,0,0,1,2.35,1c.88.88.85,1.87.85,3.59s0,2.7-.85,3.58m-1-6.35a1.84,1.84,0,0,0-1.33-.55,1.81,1.81,0,0,0-1.33.55c-.44.47-.53,1-.53,2.77s.09,2.29.53,2.77a1.85,1.85,0,0,0,1.33.55,1.88,1.88,0,0,0,1.33-.55c.43-.48.52-1,.52-2.77s-.09-2.3-.52-2.77" style="fill:#003057"/><path d="M56.1,111.15h-2v3.51H52.72v-8.92H56.1a2.71,2.71,0,1,1,0,5.41M56,107h-2v3h2a1.49,1.49,0,1,0,0-3" style="fill:#003057"/><polygon points="60.6 114.66 60.6 105.73 66.3 105.73 66.3 106.95 61.95 106.95 61.95 109.56 65.66 109.56 65.66 110.76 61.95 110.76 61.95 113.44 66.3 113.44 66.3 114.66 60.6 114.66" style="fill:#003057"/><path d="M73.59,113.82a3.22,3.22,0,0,1-2.31.84H68.15v-8.92h3.13a3.18,3.18,0,0,1,2.31.84c1,1,.9,2.26.9,3.55s.06,2.72-.9,3.69m-.93-6.27a2,2,0,0,0-1.52-.6H69.5v6.49h1.64a1.92,1.92,0,0,0,1.52-.6c.46-.51.47-1.48.47-2.71s0-2.06-.47-2.58" style="fill:#003057"/><polygon points="86.78 114.66 85.6 114.66 83.78 108.4 81.98 114.66 80.8 114.66 78.47 105.73 79.9 105.73 81.45 112.11 83.24 105.73 84.33 105.73 86.13 112.11 87.68 105.73 89.11 105.73 86.78 114.66" style="fill:#003057"/><rect x="90.41" y="105.74" width="1.35" height="8.92" style="fill:#003057"/><polygon points="97.11 106.95 97.11 114.66 95.75 114.66 95.75 106.95 93.3 106.95 93.3 105.73 99.56 105.73 99.56 106.95 97.11 106.95" style="fill:#003057"/><polygon points="106.08 114.66 106.08 110.76 102.45 110.76 102.45 114.66 101.1 114.66 101.1 105.73 102.45 105.73 102.45 109.55 106.08 109.55 106.08 105.73 107.43 105.73 107.43 114.66 106.08 114.66" style="fill:#003057"/><path d="M118.2,113.82a3.19,3.19,0,0,1-2.3.84h-3.14v-8.92h3.14a3.15,3.15,0,0,1,2.3.84c1,1,.9,2.26.9,3.55s.07,2.72-.9,3.69m-.93-6.27a1.92,1.92,0,0,0-1.51-.6h-1.64v6.49h1.64a1.88,1.88,0,0,0,1.51-.6c.47-.51.48-1.48.48-2.71s0-2.06-.48-2.58" style="fill:#003057"/><polygon points="121.11 114.66 121.11 105.73 126.81 105.73 126.81 106.95 122.46 106.95 122.46 109.56 126.17 109.56 126.17 110.76 122.46 110.76 122.46 113.44 126.81 113.44 126.81 114.66 121.11 114.66" style="fill:#003057"/><path d="M133.58,114.66l-1.88-3.76H130v3.76h-1.35v-8.92h3.46a2.55,2.55,0,0,1,2.77,2.6,2.35,2.35,0,0,1-1.78,2.37l2,4ZM132,107h-2v2.79h2a1.4,1.4,0,1,0,0-2.79" style="fill:#003057"/><polygon points="143.38 114.66 143.38 108.69 141.32 113.04 140.32 113.04 138.22 108.69 138.22 114.66 136.86 114.66 136.86 105.73 138.22 105.73 140.82 111.29 143.38 105.73 144.73 105.73 144.73 114.66 143.38 114.66" style="fill:#003057"/><path d="M152.17,114.66l-.61-1.8H148l-.62,1.8H146l3.27-8.93h1.09l3.27,8.93Zm-2.34-6.91-1.39,4h2.74Z" style="fill:#003057"/><polygon points="157.14 106.95 157.14 114.66 155.79 114.66 155.79 106.95 153.33 106.95 153.33 105.73 159.6 105.73 159.6 106.95 157.14 106.95" style="fill:#003057"/><path d="M166.13,113.78a3.26,3.26,0,0,1-2.36,1,3.2,3.2,0,0,1-2.34-1c-.88-.88-.87-1.87-.87-3.58s0-2.71.87-3.59a3.2,3.2,0,0,1,2.34-1,3.26,3.26,0,0,1,2.36,1c.87.88.85,1.87.85,3.59s0,2.7-.85,3.58m-1-6.35a1.84,1.84,0,0,0-1.33-.55,1.81,1.81,0,0,0-1.33.55c-.44.47-.52,1-.52,2.77s.08,2.29.52,2.77a1.85,1.85,0,0,0,1.33.55,1.88,1.88,0,0,0,1.33-.55c.44-.48.52-1,.52-2.77s-.08-2.3-.52-2.77" style="fill:#003057"/><polygon points="168.98 114.66 168.98 105.73 170.33 105.73 170.33 113.44 174.63 113.44 174.63 114.66 168.98 114.66" style="fill:#003057"/><path d="M181.08,113.78a3.38,3.38,0,0,1-4.7,0c-.88-.88-.86-1.87-.86-3.58s0-2.71.86-3.59a3.38,3.38,0,0,1,4.7,0c.88.88.85,1.87.85,3.59s0,2.7-.85,3.58m-1-6.35a1.87,1.87,0,0,0-2.65,0c-.44.47-.53,1-.53,2.77s.09,2.29.53,2.77a1.87,1.87,0,0,0,2.65,0c.44-.48.53-1,.53-2.77s-.09-2.3-.53-2.77" style="fill:#003057"/><path d="M189.27,113.72a3.23,3.23,0,0,1-2.45,1,3.27,3.27,0,0,1-2.35-1c-.87-.88-.86-1.87-.86-3.59s0-2.7.86-3.58a3.24,3.24,0,0,1,2.35-1,3.13,3.13,0,0,1,3.24,2.77H188.7a1.82,1.82,0,0,0-1.88-1.55,1.78,1.78,0,0,0-1.32.55c-.44.47-.54,1-.54,2.76s.1,2.31.54,2.79a1.78,1.78,0,0,0,1.32.54,1.89,1.89,0,0,0,1.45-.63,2,2,0,0,0,.45-1.4V111h-1.9v-1.15h3.26v1.37a3.35,3.35,0,0,1-.81,2.52" style="fill:#003057"/><rect x="192.06" y="105.74" width="1.35" height="8.92" style="fill:#003057"/><path d="M198.12,114.73a4,4,0,0,1-3.16-1.18l.9-.89a2.92,2.92,0,0,0,2.28.86c1.17,0,1.84-.5,1.84-1.37a1.21,1.21,0,0,0-.35-.93,1.52,1.52,0,0,0-1-.37l-1.06-.15a3,3,0,0,1-1.69-.72,2.21,2.21,0,0,1-.65-1.7c0-1.56,1.13-2.62,3-2.62a3.74,3.74,0,0,1,2.77,1l-.87.86a2.57,2.57,0,0,0-1.94-.69c-1,0-1.63.6-1.63,1.39a1.08,1.08,0,0,0,.34.83,2.08,2.08,0,0,0,1,.41l1,.15a2.92,2.92,0,0,1,1.67.66,2.37,2.37,0,0,1,.72,1.83c0,1.64-1.34,2.62-3.2,2.62" style="fill:#003057"/><polygon points="206.16 106.95 206.16 114.66 204.8 114.66 204.8 106.95 202.35 106.95 202.35 105.73 208.61 105.73 208.61 106.95 206.16 106.95" style="fill:#003057"/><path d="M212.52,114.73a4,4,0,0,1-3.16-1.18l.9-.89a2.94,2.94,0,0,0,2.28.86c1.17,0,1.85-.5,1.85-1.37a1.21,1.21,0,0,0-.36-.93,1.52,1.52,0,0,0-1-.37L212,110.7a3,3,0,0,1-1.7-.72,2.21,2.21,0,0,1-.65-1.7c0-1.56,1.13-2.62,3-2.62a3.72,3.72,0,0,1,2.77,1l-.86.86a2.6,2.6,0,0,0-1.94-.69c-1.06,0-1.63.6-1.63,1.39a1.08,1.08,0,0,0,.34.83,2,2,0,0,0,1,.41l1,.15a2.92,2.92,0,0,1,1.67.66,2.34,2.34,0,0,1,.73,1.83c0,1.64-1.34,2.62-3.21,2.62" style="fill:#003057"/><path d="M291.8,36c-15.46,0-27.12,12.67-27.12,29.48s12.12,29.47,28.19,29.47c9.51,0,16.67-3.26,23.22-10.57l.45-.5-6.1-5.46-.45.47c-4.93,5.17-10.3,7.58-16.9,7.58-9.93,0-17.35-6.94-18.68-17.34H318l.07-.59a23,23,0,0,0,.11-2.63C318.19,48,307.58,36,291.8,36m16.66,25.72h-34c1.31-10.31,8.29-17.45,17.18-17.45,11,0,15.93,8.88,16.87,17.45" style="fill:#fff"/><path d="M310.22,33.5a7.88,7.88,0,0,1-7.91-7.92,7.94,7.94,0,1,1,7.91,7.92m0-15a7.06,7.06,0,1,0,7,7,7,7,0,0,0-7-7m2,8,2.06,3h-2.17l-1.8-2.72h-1.47v2.72H307V21.11h3.75c2,0,3.31,1,3.31,2.79a2.62,2.62,0,0,1-1.82,2.62m-1.56-3.76h-1.82v2.47h1.87c.94,0,1.45-.5,1.45-1.23s-.58-1.24-1.5-1.24" style="fill:#fff"/></svg>