<svg width="187" height="36" viewBox="0 0 187 36" fill="none" xmlns="http://www.w3.org/2000/svg">
<path d="M22.2326 13.2124C22.2326 16.0584 21.3492 16.803 19.533 16.803H12.4413V9.61355H19.533C21.3492 9.61355 22.2326 10.3664 22.2326 13.2124ZM28.0116 13.2124C28.0116 8.8276 26.6907 6.27114 24.3048 5.31144C22.9687 4.90467 21.5705 4.74214 20.1769 4.8316H7.79338C7.63874 4.8305 7.48539 4.86008 7.3422 4.91863C7.19902 4.97718 7.06883 5.06355 6.9591 5.17275C6.84936 5.28195 6.76225 5.41183 6.70282 5.5549C6.64339 5.69798 6.61282 5.85141 6.61283 6.00639V27.2853C6.61283 27.5991 6.73719 27.9 6.95859 28.1218C7.17999 28.3437 7.48028 28.4684 7.79338 28.4684H11.2113C11.5229 28.4662 11.8211 28.3406 12.0407 28.1189C12.2603 27.8973 12.3836 27.5976 12.3836 27.2853V21.5933H20.1687C21.5628 21.6846 22.9619 21.5192 24.2965 21.1051C26.6824 20.1537 28.0033 17.589 28.0033 13.2124H28.0116ZM33.2539 3.00321V30.305C33.2518 31.1031 32.9345 31.8678 32.3714 32.4321C31.8083 32.9964 31.0452 33.3143 30.2489 33.3165H3.00509C2.20876 33.3143 1.44565 32.9964 0.88256 32.4321C0.319471 31.8678 0.00217874 31.1031 0 30.305V3.00321C0.00435269 2.20662 0.322627 1.44402 0.885482 0.881511C1.44834 0.319007 2.21019 0.00217052 3.00509 0H30.2489C31.0438 0.00217052 31.8057 0.319007 32.3685 0.881511C32.9314 1.44402 33.2496 2.20662 33.2539 3.00321ZM42.4921 9.62184C42.4899 9.3095 42.3645 9.01068 42.1434 8.79059C41.9222 8.57051 41.6232 8.44701 41.3115 8.44702H37.8936C37.5834 8.44918 37.2865 8.57365 37.0671 8.7935C36.8477 9.01335 36.7235 9.31093 36.7213 9.62184V27.2853C36.7213 27.5976 36.8446 27.8973 37.0642 28.1189C37.2838 28.3406 37.582 28.4662 37.8936 28.4684H41.3115C41.6246 28.4684 41.9249 28.3437 42.1463 28.1218C42.3677 27.9 42.4921 27.5991 42.4921 27.2853V9.62184ZM54.1739 13.0221C55.6551 13.0028 57.136 13.0801 58.6072 13.2538C59.5071 13.3283 59.8126 13.0139 59.8126 12.2527V10.0603C59.8309 9.8989 59.8172 9.73542 59.7723 9.57932C59.7274 9.42321 59.6522 9.27757 59.5509 9.15071C59.4496 9.02385 59.3243 8.9183 59.1822 8.84013C59.0401 8.76196 58.884 8.7127 58.7228 8.69521C57.2312 8.35524 55.7032 8.2024 54.1739 8.24019C46.3558 8.24019 45.9182 15.4628 45.7696 16.803C45.6747 17.9345 45.6747 19.0719 45.7696 20.2033C45.8604 21.5519 46.3558 28.7331 54.1739 28.7662C55.7027 28.8026 57.2302 28.6526 58.7228 28.3194C58.8852 28.3031 59.0427 28.2543 59.1859 28.1759C59.3292 28.0976 59.4553 27.9912 59.5569 27.8632C59.6585 27.7352 59.7334 27.5881 59.7773 27.4306C59.8213 27.2731 59.8332 27.1083 59.8126 26.9461V24.7537C59.8126 23.9263 59.4163 23.6616 58.5247 23.7609C57.0799 23.9191 55.6272 23.9936 54.1739 23.9842C52.3659 23.9263 51.4578 22.8839 51.2679 20.071C51.2019 19.0268 51.2019 17.9796 51.2679 16.9354C51.4578 14.1225 52.3659 13.1049 54.1739 13.0221V13.0221ZM79.329 28.5015H74.9618C74.6688 28.4808 74.3849 28.3904 74.1336 28.2379C73.8824 28.0854 73.671 27.8751 73.517 27.6245L68.5636 20.8983V27.2853C68.5593 27.6079 68.4289 27.916 68.2004 28.1434C67.972 28.3708 67.6637 28.4993 67.3418 28.5015H64.0395C63.7175 28.4993 63.4092 28.3708 63.1808 28.1434C62.9523 27.916 62.8219 27.6079 62.8176 27.2853V2.98664C62.8208 2.8291 62.855 2.67374 62.9181 2.52943C62.9813 2.38511 63.0722 2.25468 63.1857 2.14558C63.2992 2.03648 63.4329 1.95084 63.5794 1.89358C63.7259 1.83632 63.8823 1.80856 64.0395 1.81185H67.3418C67.499 1.80856 67.6553 1.83632 67.8018 1.89358C67.9483 1.95084 68.0821 2.03648 68.1956 2.14558C68.309 2.25468 68.3999 2.38511 68.4631 2.52943C68.5262 2.67374 68.5604 2.8291 68.5636 2.98664V15.7937L74.0206 9.03441C74.1599 8.84549 74.3435 8.69385 74.5552 8.59285C74.7668 8.49185 75 8.44461 75.2342 8.4553H79.1226C79.9977 8.4553 80.4436 9.02615 79.8244 9.89484L72.9804 17.9861L80.0142 27.2108C80.5839 28.0382 80.0803 28.4601 79.329 28.4601" fill="#003359"/>
<path d="M104.249 15.3387V27.3018C104.249 27.6142 104.125 27.9138 103.906 28.1355C103.686 28.3571 103.388 28.4827 103.076 28.4849H99.6666C99.3535 28.4849 99.0532 28.3603 98.8318 28.1384C98.6104 27.9165 98.4861 27.6156 98.4861 27.3018V15.5041C98.4861 14.0067 98.2879 13.0966 95.3902 13.0966C94.2642 13.1019 93.1416 13.2183 92.0384 13.4441V27.2853C92.0384 27.5976 91.9152 27.8973 91.6955 28.1189C91.4759 28.3406 91.1778 28.4662 90.8661 28.4684H87.4482C87.1351 28.4684 86.8348 28.3437 86.6134 28.1218C86.392 27.9 86.2677 27.5991 86.2677 27.2853V10.5402C86.2346 10.2706 86.3 9.99812 86.4517 9.77307C86.6035 9.54802 86.8313 9.38557 87.0932 9.3157C89.6747 8.59768 92.3396 8.22491 95.0187 8.20708C101.896 8.20708 104.249 10.8132 104.249 15.3552V15.3387ZM186.748 26.8964C186.748 33.1345 184.189 35.997 177.667 35.997C175.554 36.0322 173.448 35.7534 171.417 35.1697C171.115 35.1211 170.842 34.9625 170.65 34.7242C170.458 34.486 170.361 34.1849 170.377 33.8791V31.8852C170.357 31.737 170.375 31.5862 170.428 31.4465C170.481 31.3068 170.568 31.1826 170.681 31.0849C170.794 30.9873 170.93 30.9193 171.075 30.8871C171.221 30.855 171.373 30.8596 171.516 30.9007C173.421 31.2648 175.356 31.4504 177.295 31.455C180.482 31.455 180.977 30.6773 180.977 28.1457C179.768 28.3733 178.542 28.4951 177.312 28.5097C171.45 28.5097 169.056 26.6151 169.056 21.3451V9.60527C169.056 9.29293 169.179 8.99327 169.399 8.77163C169.618 8.55 169.916 8.42438 170.228 8.4222H173.638C173.792 8.42219 173.946 8.45285 174.088 8.51241C174.231 8.57197 174.361 8.65924 174.47 8.76921C174.579 8.87918 174.665 9.00966 174.723 9.15315C174.782 9.29665 174.811 9.4503 174.81 9.60527V21.4278C174.81 23.3141 175.834 24.0422 178.154 24.0422C179.1 24.0139 180.04 23.8723 180.952 23.6202V9.60527C180.952 9.29293 181.076 8.99327 181.295 8.77163C181.515 8.55 181.813 8.42438 182.125 8.4222H185.542C185.856 8.4222 186.156 8.54683 186.377 8.7687C186.599 8.99057 186.723 9.2915 186.723 9.60527L186.748 26.8964ZM136.272 21.1051C134.938 21.5187 133.539 21.6841 132.145 21.5933H124.359V27.2853C124.359 27.5976 124.236 27.8973 124.017 28.1189C123.797 28.3406 123.499 28.4662 123.187 28.4684H119.761C119.449 28.4662 119.151 28.3406 118.932 28.1189C118.712 27.8973 118.589 27.5976 118.589 27.2853V6.00639C118.589 5.69481 118.712 5.39599 118.932 5.17568C119.152 4.95536 119.45 4.8316 119.761 4.8316H132.145C133.538 4.74268 134.936 4.9052 136.272 5.31143C138.658 6.27114 139.979 8.8276 139.979 13.2124C139.979 17.5973 138.658 20.1537 136.272 21.1051V21.1051ZM142.225 0H114.981C114.187 0.00218335 113.426 0.319279 112.864 0.882016C112.303 1.44475 111.986 2.20738 111.984 3.00321V30.305C111.984 31.1023 112.3 31.867 112.861 32.4315C113.423 32.9961 114.185 33.3143 114.981 33.3165H142.225C143.021 33.3143 143.784 32.9964 144.347 32.4321C144.91 31.8678 145.228 31.1031 145.23 30.305V3.00321C145.226 2.20662 144.907 1.44402 144.344 0.881511C143.782 0.319007 143.02 0.00217052 142.225 0ZM131.492 9.61355H124.401V16.803H131.492C133.309 16.803 134.192 16.0584 134.192 13.2124C134.192 10.3664 133.309 9.61355 131.492 9.61355ZM159.743 24.2324C158.831 24.3373 157.913 24.3953 156.994 24.4062C154.79 24.4062 153.915 23.703 153.915 21.9242C153.915 20.3688 154.98 19.7897 156.293 19.5994C157.439 19.4775 158.594 19.4609 159.743 19.5498V24.2324ZM157.192 8.16573C155.206 8.15622 153.226 8.39242 151.298 8.86896C150.555 9.06752 150.258 9.4729 150.258 10.0686V12.0542C150.258 12.8815 150.753 13.2455 151.578 13.1297C153.275 12.859 154.988 12.7096 156.705 12.6829C159.339 12.6829 159.743 13.4193 159.743 14.8423V15.6696C157.724 15.5474 155.698 15.6473 153.7 15.9674C150.48 16.6293 148.474 18.5073 148.474 22.3792C148.474 26.8385 151.042 28.7331 156.879 28.7248C159.369 28.774 161.858 28.5745 164.309 28.1292C164.62 28.0323 164.888 27.8318 165.07 27.5609C165.252 27.2901 165.336 26.9651 165.308 26.64V15.1566C165.308 11.384 164.639 8.16573 157.159 8.16573" fill="#BA0C2F"/>
</svg>
